<svg width="40" height="40" viewBox="0 0 40 40" fill="none" xmlns="http://www.w3.org/2000/svg">
<g clip-path="url(#clip0_3044_6383)">
<path d="M23.9998 0.400002V10.8H19.9998C17.5998 10.8 15.1998 11.8 13.4998 13.5C11.7998 15.2 10.7998 17.6 10.7998 20C10.7998 22.4 11.7998 24.8 13.4998 26.5C15.1998 28.2 17.5998 29.2 19.9998 29.2H23.9998V39.6C28.4998 38.7 32.5998 36.3 35.4998 32.7C38.3998 29 39.9998 24.6 39.9998 20C39.9998 15.4 38.3998 10.9 35.4998 7.4C32.5998 3.8 28.4998 1.3 23.9998 0.400002V0.400002Z" fill="#003791"/>
<path d="M20 32.4C16.8 32.3 13.7 31 11.4 28.6C9.1 26.3 7.9 23.2 7.9 19.9C7.9 16.6 9.2 13.6 11.4 11.2C13.7 9 16.8 7.6 20 7.5H20.8V0H20C14.7 0 9.6 2.1 5.9 5.9C2.1 9.6 0 14.7 0 20C0 25.3 2.1 30.4 5.9 34.1C9.6 37.9 14.7 40 20 40H20.8V32.4H20Z" fill="#FC5055"/>
</g>
<defs>
<clipPath id="clip0_3044_6383">
<rect width="40" height="40" fill="white"/>
</clipPath>
</defs>
</svg>
