<svg width="40" height="40" viewBox="0 0 40 40" fill="none" xmlns="http://www.w3.org/2000/svg">
<path d="M35 33.1587V17.5079C35 17.2221 34.9322 16.9402 34.802 16.6845C34.6719 16.4288 34.4829 16.2064 34.25 16.0349L21.125 6.36825C20.8004 6.12922 20.4057 6 20 6C19.5943 6 19.1996 6.12922 18.875 6.36825L5.75 16.0349C5.51713 16.2064 5.32813 16.4288 5.19795 16.6845C5.06777 16.9402 5 17.2221 5 17.5079V33.1587C5 33.6471 5.19754 34.1154 5.54918 34.4607C5.90081 34.806 6.37772 35 6.875 35H14.375C14.8723 35 15.3492 34.806 15.7008 34.4607C16.0525 34.1154 16.25 33.6471 16.25 33.1587V27.6349C16.25 27.1466 16.4475 26.6783 16.7992 26.3329C17.1508 25.9876 17.6277 25.7937 18.125 25.7937H21.875C22.3723 25.7937 22.8492 25.9876 23.2008 26.3329C23.5525 26.6783 23.75 27.1466 23.75 27.6349V33.1587C23.75 33.6471 23.9475 34.1154 24.2992 34.4607C24.6508 34.806 25.1277 35 25.625 35H33.125C33.6223 35 34.0992 34.806 34.4508 34.4607C34.8025 34.1154 35 33.6471 35 33.1587Z" stroke="white" stroke-width="2.6" stroke-linecap="round" stroke-linejoin="round"/>
</svg>
