<svg width="40" height="40" viewBox="0 0 40 40" fill="none" xmlns="http://www.w3.org/2000/svg">
<path d="M4 12L5.3008 13.9504C5.8851 14.8267 6.67665 15.5453 7.60523 16.0424C8.53382 16.5395 9.57073 16.7997 10.624 16.8H29.3728C30.4263 16.8 31.4636 16.5399 32.3925 16.0428C33.3213 15.5457 34.1132 14.827 34.6976 13.9504L36 12" stroke="white" stroke-width="2.6" stroke-linecap="round"/>
<path d="M12.0008 27.9996C13.7681 27.9996 15.2008 26.5669 15.2008 24.7996C15.2008 23.0323 13.7681 21.5996 12.0008 21.5996C10.2335 21.5996 8.80078 23.0323 8.80078 24.7996C8.80078 26.5669 10.2335 27.9996 12.0008 27.9996Z" stroke="white" stroke-width="2.6"/>
<path d="M28.0008 27.9996C29.7681 27.9996 31.2008 26.5669 31.2008 24.7996C31.2008 23.0323 29.7681 21.5996 28.0008 21.5996C26.2335 21.5996 24.8008 23.0323 24.8008 24.7996C24.8008 26.5669 26.2335 27.9996 28.0008 27.9996Z" stroke="white" stroke-width="2.6"/>
</svg>
