<svg width="40" height="40" viewBox="0 0 40 40" fill="none" xmlns="http://www.w3.org/2000/svg">
<path d="M20 4C21.4688 4 22.8854 4.1875 24.25 4.5625C25.6146 4.9375 26.8906 5.47396 28.0781 6.17188C29.2656 6.86979 30.3438 7.70312 31.3125 8.67188C32.2812 9.64062 33.1146 10.724 33.8125 11.9219C34.5104 13.1198 35.0469 14.3958 35.4219 15.75C35.7969 17.1042 35.9896 18.5208 36 20C36 21.4688 35.8125 22.8854 35.4375 24.25C35.0625 25.6146 34.526 26.8906 33.8281 28.0781C33.1302 29.2656 32.2969 30.3438 31.3281 31.3125C30.3594 32.2812 29.276 33.1146 28.0781 33.8125C26.8802 34.5104 25.6042 35.0469 24.25 35.4219C22.8958 35.7969 21.4792 35.9896 20 36C18.5312 36 17.1146 35.8125 15.75 35.4375C14.3854 35.0625 13.1094 34.526 11.9219 33.8281C10.7344 33.1302 9.65625 32.2969 8.6875 31.3281C7.71875 30.3594 6.88542 29.276 6.1875 28.0781C5.48958 26.8802 4.95312 25.6094 4.57812 24.2656C4.20312 22.9219 4.01042 21.5 4 20C4 18.5312 4.1875 17.1146 4.5625 15.75C4.9375 14.3854 5.47396 13.1094 6.17188 11.9219C6.86979 10.7344 7.70312 9.65625 8.67188 8.6875C9.64062 7.71875 10.724 6.88542 11.9219 6.1875C13.1198 5.48958 14.3906 4.95312 15.7344 4.57812C17.0781 4.20312 18.5 4.01042 20 4ZM20 6C18.7188 6 17.4844 6.16667 16.2969 6.5C15.1094 6.83333 13.9948 7.30208 12.9531 7.90625C11.9115 8.51042 10.9635 9.24479 10.1094 10.1094C9.25521 10.974 8.52604 11.9167 7.92188 12.9375C7.31771 13.9583 6.84375 15.0729 6.5 16.2812C6.15625 17.4896 5.98958 18.7292 6 20C6 20.6771 6.04688 21.3438 6.14062 22C7.41146 21.9792 8.55208 21.724 9.5625 21.2344C10.5729 20.7448 11.4792 20.1042 12.2812 19.3125C13.0833 18.5208 13.7656 17.6146 14.3281 16.5938C14.8906 15.5729 15.3854 14.5156 15.8125 13.4219C16.0625 12.7344 16.3438 12.0573 16.6562 11.3906C16.9688 10.724 17.3229 10.0729 17.7188 9.4375C18.1146 8.80208 18.5365 8.19792 18.9844 7.625C19.4323 7.05208 19.9427 6.51562 20.5156 6.01562C20.4323 6.00521 20.349 6 20.2656 6C20.1823 6 20.0938 6 20 6ZM6.57812 23.9844C6.91146 25.1094 7.38021 26.1719 7.98438 27.1719C8.58854 28.1719 9.29688 29.0781 10.1094 29.8906C10.9219 30.7031 11.8281 31.4115 12.8281 32.0156C13.8281 32.6198 14.8906 33.0885 16.0156 33.4219C16.099 31.9635 16.4219 30.651 16.9844 29.4844C17.5469 28.3177 18.2812 27.2812 19.1875 26.375C20.0938 25.4688 21.125 24.6823 22.2812 24.0156C23.4375 23.349 24.651 22.7812 25.9219 22.3125C26.6094 22.0625 27.3281 21.75 28.0781 21.375C28.8281 21 29.5521 20.5729 30.25 20.0938C30.9479 19.6146 31.5885 19.0781 32.1719 18.4844C32.7552 17.8906 33.224 17.2604 33.5781 16.5938C33.2656 15.3438 32.7969 14.1719 32.1719 13.0781C31.5469 11.9844 30.7865 10.9948 29.8906 10.1094C28.9948 9.22396 28.0052 8.46875 26.9219 7.84375C25.8385 7.21875 24.6667 6.74479 23.4062 6.42188C22.7292 6.77604 22.099 7.24479 21.5156 7.82812C20.9323 8.41146 20.401 9.05208 19.9219 9.75C19.4427 10.4479 19.0104 11.1719 18.625 11.9219C18.2396 12.6719 17.9271 13.3906 17.6875 14.0781C17.2188 15.349 16.651 16.5625 15.9844 17.7188C15.3177 18.875 14.5312 19.901 13.625 20.7969C12.7188 21.6927 11.6823 22.4271 10.5156 23C9.34896 23.5729 8.03646 23.901 6.57812 23.9844ZM20 34C21.2812 34 22.5156 33.8333 23.7031 33.5C24.8906 33.1667 26.0052 32.6979 27.0469 32.0938C28.0885 31.4896 29.0365 30.7552 29.8906 29.8906C30.7448 29.026 31.474 28.0833 32.0781 27.0625C32.6823 26.0417 33.1562 24.9271 33.5 23.7188C33.8438 22.5104 34.0104 21.2708 34 20V19.75C34 19.6667 33.9948 19.5781 33.9844 19.4844C33.4948 20.0365 32.9635 20.5417 32.3906 21C31.8177 21.4583 31.2135 21.8854 30.5781 22.2812C29.9427 22.6771 29.2917 23.026 28.625 23.3281C27.9583 23.6302 27.276 23.9167 26.5781 24.1875C25.4844 24.5938 24.4271 25.0833 23.4062 25.6562C22.3854 26.2292 21.4792 26.9167 20.6875 27.7188C19.8958 28.5208 19.2552 29.4219 18.7656 30.4219C18.276 31.4219 18.0208 32.5677 18 33.8594C18.6562 33.9531 19.3229 34 20 34Z" fill="white"/>
<path fill-rule="evenodd" clip-rule="evenodd" d="M19.9981 3.70003L20.0002 3.70001C21.4948 3.70002 22.9382 3.89086 24.3297 4.27324C25.719 4.65503 27.0195 5.20162 28.2303 5.91326C29.4396 6.62399 30.538 7.47293 31.5248 8.45976C32.5121 9.44699 33.3612 10.5509 34.0719 11.7709C34.783 12.9914 35.3294 14.2913 35.7112 15.67C36.0936 17.0508 36.2896 18.4938 36.3002 19.9979L36.3002 20C36.3002 21.4946 36.1094 22.9381 35.727 24.3295C35.3452 25.7188 34.7986 27.0193 34.087 28.2302C33.3762 29.4395 32.5273 30.5378 31.5405 31.5247C30.5532 32.5119 29.4493 33.361 28.2293 34.0717C27.0089 34.7828 25.7089 35.3292 24.3303 35.711C22.9494 36.0934 21.5064 36.2894 20.0023 36.3L20.0002 36.3C18.5056 36.3 17.0622 36.1092 15.6707 35.7268C14.2814 35.345 12.9809 34.7984 11.7701 34.0868C10.5608 33.376 9.46241 32.5271 8.47557 31.5403C7.48834 30.553 6.63925 29.4491 5.92849 28.2292C5.21762 27.009 4.6712 25.7145 4.28937 24.3463C3.90671 22.9751 3.7108 21.5267 3.70021 20.0021L3.7002 20C3.7002 18.5054 3.89104 17.062 4.27343 15.6705C4.65522 14.2812 5.20181 12.9807 5.91344 11.7699C6.62418 10.5606 7.47311 9.46222 8.45995 8.47539C9.44717 7.48816 10.5511 6.63906 11.7711 5.9283C12.9912 5.21743 14.2857 4.67102 15.6539 4.28919C17.0251 3.90653 18.4735 3.71061 19.9981 3.70003ZM6.30019 19.9976L6.30021 20C6.3002 20.572 6.33435 21.136 6.40257 21.6921C7.52759 21.6427 8.53586 21.3986 9.43189 20.9644C10.4126 20.4892 11.2919 19.8677 12.0707 19.099C12.8515 18.3283 13.5165 17.4454 14.0656 16.449C14.6211 15.4408 15.1099 14.3965 15.532 13.316C15.7848 12.6212 16.069 11.937 16.3848 11.2633C16.7024 10.5857 17.0623 9.92423 17.4643 9.2789C17.8656 8.63471 18.2936 8.02179 18.7482 7.44024C19.0585 7.04337 19.3977 6.66394 19.7655 6.30193C18.5946 6.32105 17.4658 6.48356 16.3782 6.78886C15.2143 7.11554 14.1232 7.57457 13.1038 8.16578C12.0854 8.75646 11.1586 9.47442 10.323 10.3202C9.48564 11.1678 8.77162 12.0911 8.18025 13.0903C7.58995 14.0877 7.12587 15.1783 6.78875 16.3634C6.45292 17.5439 6.29001 18.755 6.30019 19.9976ZM20.0002 6.00002C18.719 6.00002 17.4846 6.16669 16.2971 6.50002C15.1096 6.83335 13.995 7.3021 12.9533 7.90627C11.9117 8.51044 10.9637 9.24481 10.1096 10.1094C9.25541 10.974 8.52624 11.9167 7.92208 12.9375C7.31791 13.9584 6.84395 15.0729 6.5002 16.2813C6.15645 17.4896 5.98979 18.7292 6.0002 20C6.0002 20.6771 6.04708 21.3438 6.14083 22C7.41166 21.9792 8.55229 21.724 9.5627 21.2344C10.5731 20.7448 11.4794 20.1042 12.2815 19.3125C13.0835 18.5209 13.7658 17.6146 14.3283 16.5938C14.8908 15.5729 15.3856 14.5156 15.8127 13.4219C16.0627 12.7344 16.344 12.0573 16.6565 11.3906C16.969 10.724 17.3231 10.0729 17.719 9.43752C18.1148 8.8021 18.5367 8.19794 18.9846 7.62502C19.3487 7.15926 19.7542 6.71759 20.2009 6.30002C20.2225 6.27989 20.2441 6.25981 20.2658 6.23979C20.3478 6.16428 20.4311 6.08956 20.5158 6.01564C20.4325 6.00523 20.3492 6.00002 20.2658 6.00002H20.0002ZM25.8183 22.0311L25.8196 22.0306C26.4948 21.785 27.203 21.4773 27.9442 21.1067C28.6817 20.7379 29.3938 20.3179 30.0804 19.8464C30.7627 19.378 31.3885 18.8539 31.9581 18.2741C32.4934 17.7293 32.9261 17.1558 33.2587 16.554C32.953 15.3722 32.5039 14.2635 31.9116 13.227C31.3001 12.1569 30.5564 11.189 29.6799 10.3228C28.8022 9.45526 27.8331 8.71571 26.7722 8.10363C25.7456 7.51136 24.6366 7.05724 23.4443 6.74175C22.8342 7.07404 22.2621 7.50617 21.728 8.04028C21.158 8.61027 20.6384 9.23667 20.1694 9.91982C19.6974 10.6073 19.2716 11.3204 18.892 12.059C18.512 12.7985 18.2053 13.5044 17.971 14.1769L17.9692 14.182C17.4947 15.4685 16.9197 16.6974 16.2445 17.8686C15.565 19.047 14.7623 20.0947 13.8361 21.0102C12.9064 21.9293 11.8432 22.6824 10.6481 23.2693C9.54489 23.811 8.32009 24.1388 6.97715 24.2563C7.29342 25.2252 7.71478 26.1452 8.24135 27.0168C8.83321 27.9964 9.52662 28.8834 10.3217 29.6785C11.1168 30.4736 12.0038 31.167 12.9835 31.7589C13.855 32.2854 14.7749 32.7068 15.7438 33.023C15.8604 31.6809 16.1827 30.4568 16.7143 29.3541C17.2913 28.1574 18.0452 27.0932 18.9756 26.1629C19.9012 25.2373 20.9535 24.435 22.1316 23.7557C23.3028 23.0805 24.5317 22.5056 25.8183 22.0311ZM16.0371 33.1151C16.0288 33.2167 16.0217 33.3189 16.0158 33.4219C15.917 33.3926 15.8186 33.3623 15.7207 33.3309C14.7046 33.0051 13.7405 32.5667 12.8283 32.0156C11.8283 31.4115 10.9221 30.7031 10.1096 29.8906C9.29708 29.0781 8.58874 28.1719 7.98458 27.1719C7.43349 26.2598 6.99508 25.2956 6.66932 24.2795C6.63795 24.1816 6.60761 24.0832 6.57833 23.9844C6.6813 23.9785 6.78355 23.9714 6.88507 23.9631C8.22129 23.8535 9.43154 23.5325 10.5158 23C11.6825 22.4271 12.719 21.6927 13.6252 20.7969C14.5315 19.9011 15.3179 18.875 15.9846 17.7188C16.6512 16.5625 17.219 15.349 17.6877 14.0781C17.9273 13.3906 18.2398 12.6719 18.6252 11.9219C19.0106 11.1719 19.4429 10.4479 19.9221 9.75002C20.4012 9.0521 20.9325 8.41148 21.5158 7.82814C22.0992 7.24481 22.7294 6.77606 23.4065 6.42189C24.6669 6.74481 25.8387 7.21877 26.9221 7.84377C28.0054 8.46877 28.995 9.22398 29.8908 10.1094C30.7867 10.9948 31.5471 11.9844 32.1721 13.0781C32.7971 14.1719 33.2658 15.3438 33.5783 16.5938C33.2242 17.2604 32.7554 17.8906 32.1721 18.4844C31.5887 19.0781 30.9481 19.6146 30.2502 20.0938C29.5523 20.5729 28.8283 21 28.0783 21.375C27.3283 21.75 26.6096 22.0625 25.9221 22.3125C24.6512 22.7813 23.4377 23.349 22.2815 24.0156C21.1252 24.6823 20.094 25.4688 19.1877 26.375C18.2815 27.2813 17.5471 28.3177 16.9846 29.4844C16.4618 30.5687 16.146 31.7789 16.0371 33.1151ZM26.6828 24.4687C25.6037 24.8696 24.5606 25.3526 23.5533 25.9179C22.556 26.4776 21.6724 27.1482 20.9012 27.9295C20.132 28.7088 19.5104 29.5833 19.0353 30.5538C18.6013 31.4401 18.3569 32.453 18.308 33.5976C18.8641 33.6659 19.4282 33.7 20.0002 33.7C21.2551 33.7 22.4621 33.5368 23.6222 33.2112C24.7861 32.8845 25.8772 32.4255 26.8966 31.8343C27.915 31.2436 28.8418 30.5256 29.6774 29.6798C30.5148 28.8322 31.2288 27.9089 31.8202 26.9097C32.4104 25.9123 32.8745 24.8217 33.2117 23.6367C33.5273 22.5271 33.6902 21.3904 33.7002 20.226C33.3454 20.5836 32.9714 20.9197 32.5782 21.2343C31.9959 21.7001 31.3822 22.134 30.737 22.5359C30.0906 22.9385 29.428 23.2938 28.749 23.6014C28.0772 23.9058 27.3898 24.1944 26.6869 24.4672L26.6828 24.4687ZM33.9846 19.4844C33.905 19.5742 33.8242 19.6627 33.7424 19.75C33.7284 19.765 33.7143 19.7799 33.7002 19.7948C33.291 20.2273 32.8546 20.629 32.3908 21C31.8179 21.4584 31.2137 21.8854 30.5783 22.2813C29.9429 22.6771 29.2919 23.0261 28.6252 23.3281C27.9585 23.6302 27.2762 23.9167 26.5783 24.1875C25.4846 24.5938 24.4273 25.0834 23.4065 25.6563C22.3856 26.2292 21.4794 26.9167 20.6877 27.7188C19.896 28.5209 19.2554 29.4219 18.7658 30.4219C18.2762 31.4219 18.021 32.5677 18.0002 33.8594C18.6565 33.9531 19.3231 34 20.0002 34C21.2815 34 22.5158 33.8334 23.7033 33.5C24.8908 33.1667 26.0054 32.6979 27.0471 32.0938C28.0887 31.4896 29.0367 30.7552 29.8908 29.8906C30.745 29.0261 31.4742 28.0834 32.0783 27.0625C32.6825 26.0417 33.1565 24.9271 33.5002 23.7188C33.844 22.5104 34.0106 21.2709 34.0002 20V19.75C34.0002 19.6667 33.995 19.5781 33.9846 19.4844ZM20.0002 4.00002C21.469 4.00002 22.8856 4.18752 24.2502 4.56252C25.6148 4.93752 26.8908 5.47398 28.0783 6.17189C29.2658 6.86981 30.344 7.70314 31.3127 8.67189C32.2815 9.64064 33.1148 10.724 33.8127 11.9219C34.5106 13.1198 35.0471 14.3959 35.4221 15.75C35.7971 17.1042 35.9898 18.5209 36.0002 20C36.0002 21.4688 35.8127 22.8854 35.4377 24.25C35.0627 25.6146 34.5262 26.8906 33.8283 28.0781C33.1304 29.2656 32.2971 30.3438 31.3283 31.3125C30.3596 32.2813 29.2762 33.1146 28.0783 33.8125C26.8804 34.5104 25.6044 35.0469 24.2502 35.4219C22.896 35.7969 21.4794 35.9896 20.0002 36C18.5315 36 17.1148 35.8125 15.7502 35.4375C14.3856 35.0625 13.1096 34.5261 11.9221 33.8281C10.7346 33.1302 9.65645 32.2969 8.6877 31.3281C7.71895 30.3594 6.88562 29.2761 6.1877 28.0781C5.48979 26.8802 4.95333 25.6094 4.57833 24.2656C4.20333 22.9219 4.01062 21.5 4.0002 20C4.0002 18.5313 4.1877 17.1146 4.5627 15.75C4.9377 14.3854 5.47416 13.1094 6.17208 11.9219C6.86999 10.7344 7.70333 9.65627 8.67208 8.68752C9.64083 7.71877 10.7242 6.88544 11.9221 6.18752C13.12 5.4896 14.3908 4.95314 15.7346 4.57814C17.0783 4.20314 18.5002 4.01044 20.0002 4.00002Z" fill="white"/>
</svg>
