<svg width="178" height="36" viewBox="0 0 178 36" fill="none" xmlns="http://www.w3.org/2000/svg">
<g clip-path="url(#clip0_3003_2665)">
<path d="M9.40552 8.22797C10.8499 6.19327 14.7413 0.722124 15.2553 0H10.6757C8.39444 3.20708 6.04519 6.50761 3.72992 9.76566V0H0V16.2393H3.70443L7.13698 11.4138C7.13698 11.4138 12.6469 18.6733 13.6367 19.9773H18.3182C15.3275 16.0354 12.3665 12.1402 9.40127 8.23221L9.40552 8.22797Z" fill="white"/>
<path d="M107.471 8.23646V0H103.741V19.9731H107.471V11.9703H116.443V8.24071H107.471V8.23646Z" fill="white"/>
<path d="M136.631 11.9703V8.24071H123.878V3.72956H136.631V0H120.148V11.9703H136.631Z" fill="white"/>
<path d="M120.148 19.9732H136.631V16.2437H120.148V19.9732Z" fill="white"/>
<path d="M55.537 0V8.23646H46.5223V0H42.7924V19.9731H46.5223V11.9703H55.537V19.9731H59.2669V0H55.537Z" fill="white"/>
<path d="M154.206 0V8.23646H145.191V0H141.461V19.9731H145.191V11.9703H154.206V19.9731H157.935V0H154.206Z" fill="white"/>
<path d="M30.1114 0.050904C23.7943 -0.573521 18.5308 4.68949 19.1553 11.0059C19.6183 15.6785 23.3992 19.459 28.0723 19.9221C34.3893 20.5465 39.6528 15.2835 39.0284 8.96701C38.5696 4.29444 34.7887 0.513913 30.1114 0.050904ZM29.9075 16.1925C25.8122 16.7107 22.3712 13.2658 22.8852 9.1709C23.2378 6.38011 25.4893 4.12878 28.2804 3.77621C32.3757 3.26223 35.8167 6.70294 35.3027 10.7978C34.9501 13.5886 32.6985 15.8399 29.9117 16.1925H29.9075Z" fill="white"/>
<path d="M63.3833 0V3.72956H69.0844V19.9731H72.8143V3.72956H78.5154V0H63.3876H63.3833Z" fill="white"/>
<path d="M162.787 0V3.72956H168.488V19.9731H172.218V3.72956H177.919V0H162.791H162.787Z" fill="white"/>
<path d="M95.1682 0H95.1639V0.00849557C92.2157 4.7023 89.2886 9.36637 86.3616 14.0304V0H82.6317V19.9731H87.0371C87.0371 19.9731 94.259 8.46584 95.1639 7.02584V16.2393H98.8938V0H95.1682Z" fill="white"/>
<path d="M19.1086 27.9802C19.1086 28.6471 19.1086 33.9484 19.1086 36H20.9736V29.845H23.7817V27.9802H19.1086Z" fill="white" fill-opacity="0.5"/>
<path d="M156.373 27.9802H151.7C151.7 28.6471 151.7 33.9484 151.7 36H153.565V29.845H156.071V36H157.936V27.9802C157.358 27.9802 156.373 27.9802 156.373 27.9802Z" fill="white" fill-opacity="0.5"/>
<path d="M123.028 27.9802H118.355C118.355 28.6471 118.355 33.9484 118.355 36H120.22V29.845H122.727V36H124.592V27.9802C124.014 27.9802 123.028 27.9802 123.028 27.9802Z" fill="white" fill-opacity="0.5"/>
<path d="M55.1885 27.9802H51.6667V29.845H55.1885C55.6601 29.845 56.0424 30.2273 56.0424 30.6988C56.0424 31.1703 55.6601 31.5526 55.1885 31.5526H51.6667V36H53.5317V33.4174H55.1885C56.6881 33.4174 57.9074 32.1983 57.9074 30.6988C57.9074 29.1993 56.6881 27.9802 55.1885 27.9802Z" fill="white" fill-opacity="0.5"/>
<path d="M86.1708 36.0002H88.2567C88.4691 35.5754 92.0843 28.3457 92.2585 27.9931H90.1726C89.4972 29.3482 88.8217 30.6947 88.1462 32.0455C87.4623 30.6905 86.7741 29.3354 86.0901 27.9846H84C84 27.9846 86.8633 33.6384 87.1097 34.1227C86.7953 34.7471 86.4852 35.3758 86.1708 36.0002Z" fill="white" fill-opacity="0.5"/>
</g>
<defs>
<clipPath id="clip0_3003_2665">
<rect width="177.915" height="36" fill="white"/>
</clipPath>
</defs>
</svg>
