<svg width="40" height="40" viewBox="0 0 40 40" fill="none" xmlns="http://www.w3.org/2000/svg">
<path d="M20.25 4C11.29 4 4 11.29 4 20.25C4 29.21 11.29 36.5 20.25 36.5C29.21 36.5 36.5 29.21 36.5 20.25C36.5 11.29 29.21 4 20.25 4ZM18.8438 6.57812C18.8975 6.57324 18.9463 6.58301 19 6.57812V19H15.1719C14.9033 15.4844 13.5361 12.2764 11.3828 9.74219C13.4385 8.00391 16.0068 6.86621 18.8438 6.57812ZM21.5 6.57812C24.3955 6.83691 27.0225 7.96973 29.1172 9.74219C26.9639 12.2764 25.5967 15.4844 25.3281 19H21.5V6.57812ZM9.625 11.5391C11.334 13.6094 12.4131 16.1729 12.6719 19H6.57812C6.83203 16.1729 7.92578 13.6094 9.625 11.5391ZM30.875 11.5391C32.5742 13.6094 33.668 16.1729 33.9219 19H27.8281C28.0869 16.1729 29.166 13.6094 30.875 11.5391ZM6.57812 21.5H12.6719C12.4131 24.3271 11.334 26.8906 9.625 28.9609C7.92578 26.8906 6.83203 24.3271 6.57812 21.5ZM15.1719 21.5H19V33.9219C16.1045 33.6631 13.4775 32.5303 11.3828 30.7578C13.5361 28.2236 14.9033 25.0156 15.1719 21.5ZM21.5 21.5H25.3281C25.5967 25.0156 26.9639 28.2236 29.1172 30.7578C27.0225 32.5303 24.3955 33.6631 21.5 33.9219V21.5ZM27.8281 21.5H33.9219C33.668 24.3271 32.5742 26.8906 30.875 28.9609C29.166 26.8906 28.0869 24.3271 27.8281 21.5Z" fill="white"/>
</svg>
