<svg width="40" height="40" viewBox="0 0 40 40" fill="none" xmlns="http://www.w3.org/2000/svg">
<path d="M24.2843 25.0068L25.7143 28.0818C25.7143 28.0818 32.1427 29.4468 32.1427 32.6935C32.1427 35.0002 29.2827 35.0002 29.2827 35.0002H21.666L17.916 32.9168" stroke="white" stroke-width="2.6" stroke-linecap="round" stroke-linejoin="round"/>
<path d="M15.7138 25.0068L14.2855 28.0818C14.2855 28.0818 7.85547 29.4468 7.85547 32.6935C7.85547 35.0002 10.7155 35.0002 10.7155 35.0002H14.1655L17.9155 32.9168L22.4988 30.0002" stroke="white" stroke-width="2.6" stroke-linecap="round" stroke-linejoin="round"/>
<path d="M5 26.5433C5 26.5433 8.57167 25.775 10.715 25.0067C12.8567 14.2433 19.2833 15.0117 20 15.0117C20.715 15.0117 27.1433 14.2433 29.285 25.0067C31.4283 25.7733 35 26.5433 35 26.5433M20 11.6667C20.8841 11.6667 21.7319 11.3155 22.357 10.6904C22.9821 10.0652 23.3333 9.21739 23.3333 8.33333C23.3333 7.44928 22.9821 6.60143 22.357 5.97631C21.7319 5.35119 20.8841 5 20 5C19.1159 5 18.2681 5.35119 17.643 5.97631C17.0179 6.60143 16.6667 7.44928 16.6667 8.33333C16.6667 9.21739 17.0179 10.0652 17.643 10.6904C18.2681 11.3155 19.1159 11.6667 20 11.6667Z" stroke="white" stroke-width="2.6" stroke-linecap="round" stroke-linejoin="round"/>
</svg>
