<svg width="40" height="40" viewBox="0 0 40 40" fill="none" xmlns="http://www.w3.org/2000/svg">
<path d="M11.5103 10H6.14887C5.84417 10 5.55195 10.121 5.3365 10.3365C5.12104 10.552 5 10.8442 5 11.1489V27.9989C5 28.1498 5.02972 28.2992 5.08745 28.4386C5.14519 28.578 5.22981 28.7046 5.3365 28.8113C5.44318 28.918 5.56983 29.0026 5.70922 29.0604C5.8486 29.1181 5.998 29.1478 6.14887 29.1478H11.5103C11.6611 29.1478 11.8105 29.1181 11.9499 29.0604C12.0893 29.0026 12.2159 28.918 12.3226 28.8113C12.4293 28.7046 12.5139 28.578 12.5717 28.4386C12.6294 28.2992 12.6591 28.1498 12.6591 27.9989V11.1489C12.6591 10.8442 12.5381 10.552 12.3226 10.3365C12.1072 10.121 11.815 10 11.5103 10ZM34.4876 10H29.1262C28.8215 10 28.5293 10.121 28.3139 10.3365C28.0984 10.552 27.9774 10.8442 27.9774 11.1489V27.9989C27.9774 28.1498 28.0071 28.2992 28.0648 28.4386C28.1226 28.578 28.2072 28.7046 28.3139 28.8113C28.4206 28.918 28.5472 29.0026 28.6866 29.0604C28.826 29.1181 28.9754 29.1478 29.1262 29.1478H34.4876C34.6385 29.1478 34.7879 29.1181 34.9273 29.0604C35.0667 29.0026 35.1933 28.918 35.3 28.8113C35.4067 28.7046 35.4913 28.578 35.549 28.4386C35.6068 28.2992 35.6365 28.1498 35.6365 27.9989V11.1489C35.6365 10.8442 35.5155 10.552 35.3 10.3365C35.0845 10.121 34.7923 10 34.4876 10Z" stroke="white" stroke-width="2.6" stroke-linecap="round" stroke-linejoin="round"/>
<path d="M13.0781 19.873H28.2169" stroke="white" stroke-width="2.6"/>
</svg>
